<?xml version="1.0" standalone="no"?>
<!DOCTYPE svg PUBLIC "-//W3C//DTD SVG 20010904//EN"
 "http://www.w3.org/TR/2001/REC-SVG-20010904/DTD/svg10.dtd">
<svg version="1.0" xmlns="http://www.w3.org/2000/svg"
 width="1024.000000pt" height="1024.000000pt" viewBox="0 0 1024.000000 1024.000000"
 preserveAspectRatio="xMidYMid meet">

<g transform="translate(0.000000,1024.000000) scale(0.100000,-0.100000)"
fill="#000000" stroke="none">
<path d="M4845 8664 c-307 -33 -529 -81 -795 -172 -582 -198 -1109 -573 -1465
-1042 -334 -440 -525 -901 -596 -1440 -16 -122 -19 -210 -19 -561 0 -292 3
-426 12 -450 31 -90 100 -152 191 -171 102 -21 208 33 267 136 25 43 30 62 30
121 l0 71 128 125 c70 68 251 243 402 389 610 587 634 613 689 744 30 72 51
169 51 237 0 63 30 141 66 176 52 49 89 51 165 11 56 -29 73 -33 139 -33 147
0 260 86 296 224 19 74 13 123 -24 200 -46 94 -131 150 -252 166 -34 4 -62 -1
-115 -21 -38 -14 -109 -30 -157 -35 -177 -18 -308 -95 -416 -244 -73 -101 -95
-160 -117 -318 -27 -199 -9 -173 -344 -502 -376 -371 -561 -549 -570 -553 -16
-6 14 289 44 436 58 282 153 526 298 767 395 652 1028 1097 1780 1249 68 14
155 28 193 31 38 4 79 8 91 11 l22 4 4 -992 c3 -917 4 -998 21 -1053 47 -159
133 -303 242 -404 77 -73 147 -114 284 -169 170 -69 281 -165 350 -306 68
-139 64 -43 70 -1411 l5 -1240 33 -52 c33 -51 80 -91 137 -115 44 -18 308 -14
410 7 352 73 620 325 711 669 12 43 18 120 21 269 l4 209 387 1 c385 2 387 2
435 26 53 26 91 67 118 126 18 38 19 94 19 1055 0 618 -4 1050 -10 1105 -82
729 -413 1375 -969 1896 -441 411 -1062 709 -1666 799 -135 20 -500 35 -600
24z m680 -485 c712 -143 1381 -608 1764 -1226 76 -123 195 -372 239 -503 78
-227 122 -468 122 -662 l0 -108 -198 0 -197 0 -50 35 c-129 92 -284 83 -397
-23 -70 -66 -102 -138 -103 -232 0 -89 24 -148 90 -215 61 -64 116 -89 201
-93 58 -3 82 1 136 22 63 25 70 26 291 26 l227 0 0 -545 0 -545 -387 0 c-354
0 -392 -2 -428 -19 -53 -24 -103 -75 -129 -131 -20 -42 -21 -63 -22 -360 -1
-293 -3 -320 -23 -382 -49 -152 -196 -273 -347 -286 l-63 -5 -4 1114 c-3 972
-5 1123 -19 1184 -61 269 -196 486 -395 636 -73 56 -127 85 -240 130 -143 57
-235 142 -285 267 l-23 57 -3 949 -2 949 72 -7 c40 -4 118 -16 173 -27z"/>
<path d="M6181 7190 c-164 -35 -332 -183 -385 -342 -68 -200 -20 -411 128
-562 165 -167 403 -203 619 -95 78 40 181 142 224 225 150 283 20 627 -282
749 -56 22 -89 29 -165 31 -52 2 -115 -1 -139 -6z m180 -469 c75 -75 -11 -199
-104 -149 -34 18 -46 40 -47 85 0 34 5 46 31 67 41 35 83 34 120 -3z"/>
<path d="M3690 5896 c-55 -14 -131 -65 -165 -111 -58 -75 -80 -194 -55 -287 6
-20 30 -63 54 -96 102 -138 283 -164 428 -61 42 31 154 23 232 -15 60 -29 144
-114 177 -177 70 -138 59 -311 -29 -427 -36 -49 -39 -52 -93 -90 -91 -65 -78
-64 -784 -69 -695 -4 -715 -5 -860 -62 -515 -200 -766 -801 -515 -1231 53 -92
176 -218 243 -248 111 -52 124 -53 692 -51 507 1 533 0 587 -19 151 -53 248
-173 268 -330 15 -111 5 -180 -31 -209 -43 -37 -72 -125 -65 -200 14 -161 143
-283 297 -283 114 0 214 63 274 172 26 46 30 63 30 133 0 66 -5 90 -26 135
-25 50 -27 69 -32 210 -6 171 -19 235 -72 345 -133 278 -382 462 -668 494 -55
6 -300 11 -570 11 l-473 0 -41 35 c-153 131 -77 416 150 565 123 81 100 78
860 84 766 7 723 2 902 94 122 63 249 188 319 315 46 83 50 87 82 87 l34 0 0
-1349 c0 -1176 -2 -1353 -15 -1384 -37 -89 -4 -212 74 -278 71 -62 150 -74
246 -37 120 46 198 202 153 305 -10 22 -14 356 -18 1513 -5 1484 -5 1485 -26
1531 -30 65 -74 111 -137 143 -50 25 -64 27 -164 27 l-110 0 -16 77 c-37 168
-163 363 -314 483 -129 102 -256 154 -418 171 -81 9 -106 16 -134 36 -77 57
-174 75 -271 48z"/>
</g>
</svg>
